<svg width="808.5349853515625px" height="120.8px" xmlns="http://www.w3.org/2000/svg" viewBox="-154.26749267578123 14.600000000000001 808.5349853515625 120.8" style="background:#596886" preserveAspectRatio="xMidYMid"><defs><filter id="editing-hover" x="-100%" y="-100%" width="300%" height="300%"><feFlood flood-color="#052b4a" result="flood"></feFlood><feComposite operator="in" in2="SourceAlpha" in="flood" result="shadow"></feComposite><feOffset dx="-4" dy="-4" in="SourceGraphic" result="offset-1"></feOffset><feOffset dx="4" dy="4" in="shadow" result="offset-2"></feOffset><feMerge><feMergeNode in="offset-2"></feMergeNode><feMergeNode in="offset-1"></feMergeNode></feMerge></filter></defs><g filter="url(#editing-hover)"><g transform="translate(-39.56497088074684, 98.68000221252441)"><path d="M24.96-4.80L24.96-4.80L24.96-4.80Q24.96-9.28 26.75-18.24L26.75-18.24L17.28-18.24L13.76 0L0.38 0L8.51-42.24L22.02-42.24L18.30-23.36L27.78-23.36L31.30-42.24L44.80-42.24L44.80-42.24Q43.90-37.50 42.75-32.19L42.75-32.19L40.58-21.76L40.58-21.76Q38.14-9.60 38.14-4.29L38.14-4.29L38.14-4.29Q38.14-2.11 38.85-0.90L38.85-0.90L38.85-0.90Q35.65 1.28 31.90 1.28L31.90 1.28L31.90 1.28Q28.16 1.28 26.56-0.51L26.56-0.51L26.56-0.51Q24.96-2.30 24.96-4.80ZM49.12-1.92L49.12-1.92L49.12-1.92Q47.62-3.58 46.94-6.21L46.94-6.21L46.94-6.21Q46.27-8.83 46.27-13.12L46.27-13.12L46.27-13.12Q46.27-17.41 47.74-21.31L47.74-21.31L47.74-21.31Q49.22-25.22 51.90-28.03L51.90-28.03L51.90-28.03Q57.41-33.92 66.50-33.92L66.50-33.92L66.50-33.92Q69.76-33.92 72.13-32.83L72.13-32.83L83.07-33.92L78.34-8.96L78.34-8.96Q78.14-8.19 78.14-6.78L78.14-6.78L78.14-6.78Q78.14-5.38 79.01-4.48L79.01-4.48L79.01-4.48Q79.87-3.58 81.15-3.46L81.15-3.46L81.15-3.46Q80.51-1.28 78.18 0L78.18 0L78.18 0Q75.84 1.28 73.22 1.28L73.22 1.28L73.22 1.28Q70.59 1.28 68.83 0.29L68.83 0.29L68.83 0.29Q67.07-0.70 66.56-2.37L66.56-2.37L66.56-2.37Q65.54-0.77 63.36 0.26L63.36 0.26L63.36 0.26Q61.18 1.28 58.27 1.28L58.27 1.28L58.27 1.28Q55.36 1.28 52.99 0.51L52.99 0.51L52.99 0.51Q50.62-0.26 49.12-1.92ZM62.62-27.90L62.62-27.90L62.62-27.90Q61.89-26.75 61.25-24.80L61.25-24.80L61.25-24.80Q60.61-22.85 59.55-17.63L59.55-17.63L59.55-17.63Q58.50-12.42 58.50-8.70L58.50-8.70L58.50-8.70Q58.50-4.99 59.07-3.90L59.07-3.90L59.07-3.90Q59.65-2.82 60.67-2.82L60.67-2.82L60.67-2.82Q62.72-2.82 64.22-4.77L64.22-4.77L64.22-4.77Q65.73-6.72 66.30-10.18L66.30-10.18L69.70-28.93L69.70-28.93Q68.35-30.08 66.78-30.08L66.78-30.08L66.78-30.08Q65.22-30.08 64.29-29.57L64.29-29.57L64.29-29.57Q63.36-29.06 62.62-27.90ZM106.56-17.98L106.56-17.98L106.56-17.98Q108.86-22.08 108.86-26.24L108.86-26.24L108.86-26.24Q108.86-28.99 106.88-28.99L106.88-28.99L106.88-28.99Q105.34-28.99 103.74-26.37L103.74-26.37L103.74-26.37Q102.08-23.74 101.57-20.35L101.57-20.35L98.24 0L84.99 1.28L91.52-32.64L102.08-33.92L100.93-27.46L100.93-27.46Q104.06-33.92 111.10-33.92L111.10-33.92L111.10-33.92Q114.82-33.92 116.83-32L116.83-32L116.83-32Q118.85-30.08 118.85-26.14L118.85-26.14L118.85-26.14Q118.85-22.21 116.26-19.71L116.26-19.71L116.26-19.71Q113.66-17.22 109.25-17.22L109.25-17.22L109.25-17.22Q107.33-17.22 106.56-17.98ZM139.01-22.46L139.01-22.46L139.01-22.46Q139.90-24.83 139.90-26.88L139.90-26.88L139.90-26.88Q139.90-30.66 136.83-30.66L136.83-30.66L136.83-30.66Q135.23-30.66 133.92-29.22L133.92-29.22L133.92-29.22Q132.61-27.78 132.61-25.98L132.61-25.98L132.61-25.98Q132.61-24.70 133.63-23.68L133.63-23.68L133.63-23.68Q135.10-22.27 138.88-19.97L138.88-19.97L138.88-19.97Q142.66-17.66 144.10-15.78L144.10-15.78L144.10-15.78Q145.54-13.89 145.54-11.30L145.54-11.30L145.54-11.30Q145.54-8.70 144.29-6.34L144.29-6.34L144.29-6.34Q143.04-3.97 140.80-2.30L140.80-2.30L140.80-2.30Q136 1.28 128.32 1.28L128.32 1.28L128.32 1.28Q124.16 1.28 120.96-0.90L120.96-0.90L120.96-0.90Q117.76-3.01 117.76-5.50L117.76-5.50L117.76-5.50Q117.76-8 119.58-9.47L119.58-9.47L119.58-9.47Q121.41-10.94 124.10-10.94L124.10-10.94L124.10-10.94Q126.78-10.94 128.45-9.92L128.45-9.92L128.45-9.92Q127.62-7.81 127.62-6.40L127.62-6.40L127.62-6.40Q127.62-2.18 131.20-2.18L131.20-2.18L131.20-2.18Q132.74-2.18 133.76-3.14L133.76-3.14L133.76-3.14Q134.78-4.10 134.78-5.76L134.78-5.76L134.78-5.76Q134.78-9.02 129.28-12.48L129.28-12.48L129.28-12.48Q124.80-15.42 123.78-16.58L123.78-16.58L123.78-16.58Q122.05-18.62 122.05-21.18L122.05-21.18L122.05-21.18Q122.05-23.74 123.26-26.18L123.26-26.18L123.26-26.18Q124.48-28.61 126.72-30.34L126.72-30.34L126.72-30.34Q131.39-33.92 139.52-33.92L139.52-33.92L139.52-33.92Q143.68-33.92 146.14-32.26L146.14-32.26L146.14-32.26Q148.61-30.59 148.61-27.78L148.61-27.78L148.61-27.78Q148.61-24.96 146.91-23.36L146.91-23.36L146.91-23.36Q145.22-21.76 142.14-21.76L142.14-21.76L142.14-21.76Q140.03-21.76 139.01-22.46ZM183.17-7.10L183.17-7.10L183.17-7.10Q183.17-4.29 186.05-3.46L186.05-3.46L186.05-3.46Q185.34-1.09 182.59 0.19L182.59 0.19L182.59 0.19Q180.29 1.28 177.76 1.28L177.76 1.28L177.76 1.28Q175.23 1.28 173.92 0.61L173.92 0.61L173.92 0.61Q172.61-0.06 171.90-1.15L171.90-1.15L171.90-1.15Q170.75-2.82 170.75-5.95L170.75-5.95L170.75-5.95Q170.75-7.81 171.78-12.93L171.78-12.93L172.67-17.79L172.67-17.79Q173.76-23.36 173.76-25.41L173.76-25.41L173.76-25.41Q173.76-28.99 171.78-28.99L171.78-28.99L171.78-28.99Q169.28-28.99 167.68-25.34L167.68-25.34L167.68-25.34Q167.04-23.94 166.59-21.82L166.59-21.82L162.24 0L149.38 1.28L158.40-44.80L171.26-46.08L170.75-43.52L170.75-43.52Q168.96-33.66 167.42-30.34L167.42-30.34L167.42-30.34Q171.01-33.92 177.60-33.92L177.60-33.92L177.60-33.92Q184.58-33.92 185.86-29.31L185.86-29.31L185.86-29.31Q186.30-27.84 186.30-26.56L186.30-26.56L186.30-26.56Q186.30-25.28 186.21-24.29L186.21-24.29L186.21-24.29Q186.11-23.30 185.79-21.50L185.79-21.50L184.96-16.90L183.49-9.66L183.49-9.66Q183.17-8.19 183.17-7.10ZM245.95-26.56L245.95-26.56L245.95-26.56Q245.95 0.70 216.38 0.70L216.38 0.70L216.38 0.70Q211.65 0.70 203.84-0.45L203.84-0.45L211.01-38.27L211.01-38.27Q211.52-40.83 211.84-42.30L211.84-42.30L211.84-42.30Q221.57-43.01 225.89-43.01L225.89-43.01L225.89-43.01Q230.21-43.01 234.18-42.11L234.18-42.11L234.18-42.11Q238.14-41.22 240.77-39.23L240.77-39.23L240.77-39.23Q245.95-35.33 245.95-26.56ZM232.77-28.93L232.77-28.93L232.77-28.93Q232.77-38.46 225.92-38.46L225.92-38.46L225.28-38.46L225.28-38.46Q224.96-38.46 224.64-38.40L224.64-38.40L218.05-4.03L218.05-4.03Q218.30-3.90 218.56-3.90L218.56-3.90L219.07-3.90L219.07-3.90Q221.44-3.90 223.90-5.38L223.90-5.38L223.90-5.38Q226.37-6.85 228.29-9.86L228.29-9.86L228.29-9.86Q232.77-16.83 232.77-28.93ZM281.41-7.10L281.41-7.10L281.41-7.10Q281.41-4.29 284.29-3.46L284.29-3.46L284.29-3.46Q283.58-1.09 280.83 0.19L280.83 0.19L280.83 0.19Q278.53 1.28 276 1.28L276 1.28L276 1.28Q273.47 1.28 272.16 0.61L272.16 0.61L272.16 0.61Q270.85-0.06 270.14-1.15L270.14-1.15L270.14-1.15Q268.99-2.82 268.99-5.95L268.99-5.95L268.99-5.95Q268.99-7.81 270.02-12.93L270.02-12.93L270.91-17.79L270.91-17.79Q272-23.36 272-25.41L272-25.41L272-25.41Q272-28.99 270.02-28.99L270.02-28.99L270.02-28.99Q267.52-28.99 265.92-25.34L265.92-25.34L265.92-25.34Q265.28-23.94 264.83-21.82L264.83-21.82L260.48 0L247.62 1.28L256.64-44.80L269.50-46.08L268.99-43.52L268.99-43.52Q267.20-33.66 265.66-30.34L265.66-30.34L265.66-30.34Q269.25-33.92 275.84-33.92L275.84-33.92L275.84-33.92Q282.82-33.92 284.10-29.31L284.10-29.31L284.10-29.31Q284.54-27.84 284.54-26.56L284.54-26.56L284.54-26.56Q284.54-25.28 284.45-24.29L284.45-24.29L284.45-24.29Q284.35-23.30 284.03-21.50L284.03-21.50L283.20-16.90L281.73-9.66L281.73-9.66Q281.41-8.19 281.41-7.10ZM292.26-1.92L292.26-1.92L292.26-1.92Q290.75-3.58 290.08-6.21L290.08-6.21L290.08-6.21Q289.41-8.83 289.41-13.12L289.41-13.12L289.41-13.12Q289.41-17.41 290.88-21.31L290.88-21.31L290.88-21.31Q292.35-25.22 295.04-28.03L295.04-28.03L295.04-28.03Q300.54-33.92 309.63-33.92L309.63-33.92L309.63-33.92Q312.90-33.92 315.26-32.83L315.26-32.83L326.21-33.92L321.47-8.96L321.47-8.96Q321.28-8.19 321.28-6.78L321.28-6.78L321.28-6.78Q321.28-5.38 322.14-4.48L322.14-4.48L322.14-4.48Q323.01-3.58 324.29-3.46L324.29-3.46L324.29-3.46Q323.65-1.28 321.31 0L321.31 0L321.31 0Q318.98 1.28 316.35 1.28L316.35 1.28L316.35 1.28Q313.73 1.28 311.97 0.29L311.97 0.29L311.97 0.29Q310.21-0.70 309.70-2.37L309.70-2.37L309.70-2.37Q308.67-0.77 306.50 0.26L306.50 0.26L306.50 0.26Q304.32 1.28 301.41 1.28L301.41 1.28L301.41 1.28Q298.50 1.28 296.13 0.51L296.13 0.51L296.13 0.51Q293.76-0.26 292.26-1.92ZM305.76-27.90L305.76-27.90L305.76-27.90Q305.02-26.75 304.38-24.80L304.38-24.80L304.38-24.80Q303.74-22.85 302.69-17.63L302.69-17.63L302.69-17.63Q301.63-12.42 301.63-8.70L301.63-8.70L301.63-8.70Q301.63-4.99 302.21-3.90L302.21-3.90L302.21-3.90Q302.78-2.82 303.81-2.82L303.81-2.82L303.81-2.82Q305.86-2.82 307.36-4.77L307.36-4.77L307.36-4.77Q308.86-6.72 309.44-10.18L309.44-10.18L312.83-28.93L312.83-28.93Q311.49-30.08 309.92-30.08L309.92-30.08L309.92-30.08Q308.35-30.08 307.42-29.57L307.42-29.57L307.42-29.57Q306.50-29.06 305.76-27.90ZM356.74 1.28L356.74 1.28L356.74 1.28Q348.99 1.28 348.99-4.74L348.99-4.74L348.99-4.74Q349.06-6.40 349.57-9.22L349.57-9.22L350.72-15.10L350.72-15.10Q352.45-23.42 352.45-25.28L352.45-25.28L352.45-25.28Q352.45-28.99 350.27-28.99L350.27-28.99L350.27-28.99Q346.62-28.99 344.70-19.46L344.70-19.46L340.93 0L328.06 1.28L334.72-32.70L345.22-33.92L344.19-27.65L344.19-27.65Q347.20-33.92 356.42-33.92L356.42-33.92L356.42-33.92Q360.90-33.92 362.78-32.03L362.78-32.03L362.78-32.03Q364.67-30.14 364.67-25.92L364.67-25.92L364.67-25.92Q364.67-21.95 362.62-12.67L362.62-12.67L362.62-12.67Q361.66-8.51 361.66-6.94L361.66-6.94L361.66-6.94Q361.66-5.38 362.53-4.48L362.53-4.48L362.53-4.48Q363.39-3.58 364.67-3.46L364.67-3.46L364.67-3.46Q364.03-1.28 361.82 0L361.82 0L361.82 0Q359.62 1.28 356.74 1.28ZM372.58-1.92L372.58-1.92L372.58-1.92Q371.07-3.58 370.40-6.21L370.40-6.21L370.40-6.21Q369.73-8.83 369.73-13.12L369.73-13.12L369.73-13.12Q369.73-17.41 371.20-21.31L371.20-21.31L371.20-21.31Q372.67-25.22 375.36-28.03L375.36-28.03L375.36-28.03Q380.86-33.92 389.95-33.92L389.95-33.92L389.95-33.92Q393.22-33.92 395.58-32.83L395.58-32.83L406.53-33.92L401.79-8.96L401.79-8.96Q401.60-8.19 401.60-6.78L401.60-6.78L401.60-6.78Q401.60-5.38 402.46-4.48L402.46-4.48L402.46-4.48Q403.33-3.58 404.61-3.46L404.61-3.46L404.61-3.46Q403.97-1.28 401.63 0L401.63 0L401.63 0Q399.30 1.28 396.67 1.28L396.67 1.28L396.67 1.28Q394.05 1.28 392.29 0.29L392.29 0.29L392.29 0.29Q390.53-0.70 390.02-2.37L390.02-2.37L390.02-2.37Q388.99-0.77 386.82 0.26L386.82 0.26L386.82 0.26Q384.64 1.28 381.73 1.28L381.73 1.28L381.73 1.28Q378.82 1.28 376.45 0.51L376.45 0.51L376.45 0.51Q374.08-0.26 372.58-1.92ZM386.08-27.90L386.08-27.90L386.08-27.90Q385.34-26.75 384.70-24.80L384.70-24.80L384.70-24.80Q384.06-22.85 383.01-17.63L383.01-17.63L383.01-17.63Q381.95-12.42 381.95-8.70L381.95-8.70L381.95-8.70Q381.95-4.99 382.53-3.90L382.53-3.90L382.53-3.90Q383.10-2.82 384.13-2.82L384.13-2.82L384.13-2.82Q386.18-2.82 387.68-4.77L387.68-4.77L387.68-4.77Q389.18-6.72 389.76-10.18L389.76-10.18L393.15-28.93L393.15-28.93Q391.81-30.08 390.24-30.08L390.24-30.08L390.24-30.08Q388.67-30.08 387.74-29.57L387.74-29.57L387.74-29.57Q386.82-29.06 386.08-27.90ZM457.73-10.69L457.73-10.69Q453.50-4.86 449.44-1.79L449.44-1.79L449.44-1.79Q445.38 1.28 441.18 1.28L441.18 1.28L441.18 1.28Q436.99 1.28 435.52 0.45L435.52 0.45L435.52-13.63L435.52-13.63Q431.87-3.90 425.34-0.13L425.34-0.13L425.34-0.13Q422.98 1.28 420.74 1.28L420.74 1.28L420.74 1.28Q416.45 1.28 414.59 0.45L414.59 0.45L414.59 0.45Q414.14-14.21 413.76-18.27L413.76-18.27L413.76-18.27Q413.38-22.34 413.06-24.83L413.06-24.83L413.06-24.83Q412.42-29.82 410.24-31.87L410.24-31.87L410.24-31.87Q412.99-33.92 416.83-33.92L416.83-33.92L416.83-33.92Q424.26-33.92 425.28-24.70L425.28-24.70L425.28-24.70Q425.54-22.53 425.54-20.22L425.54-20.22L425.54-20.22Q425.54-16.77 424.77-4.74L424.77-4.74L424.77-4.74Q426.30-5.44 427.94-7.97L427.94-7.97L427.94-7.97Q429.57-10.50 430.91-13.95L430.91-13.95L430.91-13.95Q433.92-21.95 433.92-28.86L433.92-28.86L433.92-28.86Q433.92-29.95 433.63-31.10L433.63-31.10L433.63-31.10Q433.34-32.26 433.02-32.58L433.02-32.58L433.02-32.58Q435.26-33.92 438.69-33.92L438.69-33.92L438.69-33.92Q442.11-33.92 443.74-31.58L443.74-31.58L443.74-31.58Q445.38-29.25 445.82-24.96L445.82-24.96L445.82-24.96Q446.34-19.52 446.34-16.26L446.34-16.26L446.34-16.26Q446.34-11.71 445.89-4.99L445.89-4.99L445.89-4.99Q449.09-7.30 451.71-14.85L451.71-14.85L451.71-14.85Q454.34-22.40 454.34-27.78L454.34-27.78L454.34-27.78Q454.34-30.14 453.95-31.55L453.95-31.55L453.95-31.55Q456.06-33.92 459.71-33.92L459.71-33.92L459.71-33.92Q461.95-33.92 463.58-32.70L463.58-32.70L463.58-32.70Q465.22-31.49 465.22-29.22L465.22-29.22L465.22-29.22Q465.22-26.94 464.54-24.51L464.54-24.51L464.54-24.51Q463.87-22.08 462.78-19.58L462.78-19.58L462.78-19.58Q460.67-14.59 457.73-10.69L457.73-10.69ZM469.73-1.92L469.73-1.92L469.73-1.92Q468.22-3.58 467.55-6.21L467.55-6.21L467.55-6.21Q466.88-8.83 466.88-13.12L466.88-13.12L466.88-13.12Q466.88-17.41 468.35-21.31L468.35-21.31L468.35-21.31Q469.82-25.22 472.51-28.03L472.51-28.03L472.51-28.03Q478.02-33.92 487.10-33.92L487.10-33.92L487.10-33.92Q490.37-33.92 492.74-32.83L492.74-32.83L503.68-33.92L498.94-8.96L498.94-8.96Q498.75-8.19 498.75-6.78L498.75-6.78L498.75-6.78Q498.75-5.38 499.62-4.48L499.62-4.48L499.62-4.48Q500.48-3.58 501.76-3.46L501.76-3.46L501.76-3.46Q501.12-1.28 498.78 0L498.78 0L498.78 0Q496.45 1.28 493.82 1.28L493.82 1.28L493.82 1.28Q491.20 1.28 489.44 0.29L489.44 0.29L489.44 0.29Q487.68-0.70 487.17-2.37L487.17-2.37L487.17-2.37Q486.14-0.77 483.97 0.26L483.97 0.26L483.97 0.26Q481.79 1.28 478.88 1.28L478.88 1.28L478.88 1.28Q475.97 1.28 473.60 0.51L473.60 0.51L473.60 0.51Q471.23-0.26 469.73-1.92ZM483.23-27.90L483.23-27.90L483.23-27.90Q482.50-26.75 481.86-24.80L481.86-24.80L481.86-24.80Q481.22-22.85 480.16-17.63L480.16-17.63L480.16-17.63Q479.10-12.42 479.10-8.70L479.10-8.70L479.10-8.70Q479.10-4.99 479.68-3.90L479.68-3.90L479.68-3.90Q480.26-2.82 481.28-2.82L481.28-2.82L481.28-2.82Q483.33-2.82 484.83-4.77L484.83-4.77L484.83-4.77Q486.34-6.72 486.91-10.18L486.91-10.18L490.30-28.93L490.30-28.93Q488.96-30.08 487.39-30.08L487.39-30.08L487.39-30.08Q485.82-30.08 484.90-29.57L484.90-29.57L484.90-29.57Q483.97-29.06 483.23-27.90ZM527.04-33.92L527.04-33.92L527.04-33.92Q529.34-33.92 531.14-33.41L531.14-33.41L531.14-33.41Q531.20-33.66 531.33-34.37L531.33-34.37L531.65-36.35L531.65-36.35Q531.90-37.63 532.29-39.74L532.29-39.74L533.31-44.80L546.05-46.08L538.94-8.96L538.94-8.96Q538.88-8.58 538.88-7.94L538.88-7.94L538.88-6.91L538.88-6.91Q538.88-5.50 539.58-4.45L539.58-4.45L539.58-4.45Q540.29-3.39 541.44-3.39L541.44-3.39L541.44-3.39Q540.16-0.38 536.26 0.90L536.26 0.90L536.26 0.90Q534.91 1.28 533.02 1.28L533.02 1.28L533.02 1.28Q531.14 1.28 529.41 0.29L529.41 0.29L529.41 0.29Q527.68-0.70 527.17-2.37L527.17-2.37L527.17-2.37Q526.14-0.70 524.10 0.29L524.10 0.29L524.10 0.29Q522.05 1.28 519.07 1.28L519.07 1.28L519.07 1.28Q516.10 1.28 513.63 0.51L513.63 0.51L513.63 0.51Q511.17-0.26 509.63-1.92L509.63-1.92L509.63-1.92Q506.82-5.18 506.82-12.61L506.82-12.61L506.82-12.61Q506.82-22.21 512.45-28.03L512.45-28.03L512.45-28.03Q518.08-33.92 527.04-33.92ZM526.59-30.08L526.59-30.08L526.59-30.08Q524.22-30.08 522.94-27.52L522.94-27.52L522.94-27.52Q521.66-24.96 520.35-18.62L520.35-18.62L520.35-18.62Q519.04-12.29 519.04-6.59L519.04-6.59L519.04-6.59Q519.04-2.69 521.34-2.69L521.34-2.69L521.34-2.69Q523.39-2.69 524.83-4.74L524.83-4.74L524.83-4.74Q526.27-6.78 526.85-10.18L526.85-10.18L530.30-28.93L530.30-28.93Q528.96-30.08 526.59-30.08ZM572.80-10.82L572.80-10.82L572.80-10.82Q574.40-9.73 574.40-7.33L574.40-7.33L574.40-7.33Q574.40-4.93 573.18-3.39L573.18-3.39L573.18-3.39Q571.97-1.86 569.98-0.83L569.98-0.83L569.98-0.83Q565.89 1.28 561.47 1.28L561.47 1.28L561.47 1.28Q557.06 1.28 554.46 0.32L554.46 0.32L554.46 0.32Q551.87-0.64 550.14-2.43L550.14-2.43L550.14-2.43Q546.75-5.82 546.75-12.03L546.75-12.03L546.75-12.03Q546.75-21.70 552-27.58L552-27.58L552-27.58Q557.63-33.92 567.42-33.92L567.42-33.92L567.42-33.92Q573.50-33.92 576.51-31.36L576.51-31.36L576.51-31.36Q578.75-29.44 578.75-26.30L578.75-26.30L578.75-26.30Q578.75-15.04 559.30-15.04L559.30-15.04L559.30-15.04Q559.04-13.38 559.04-11.97L559.04-11.97L559.04-11.97Q559.04-9.02 560.35-7.90L560.35-7.90L560.35-7.90Q561.66-6.78 564.10-6.78L564.10-6.78L564.10-6.78Q566.53-6.78 569.12-7.90L569.12-7.90L569.12-7.90Q571.71-9.02 572.80-10.82ZM559.74-17.79L559.74-17.79L559.74-17.79Q564.29-17.79 566.91-20.61L566.91-20.61L566.91-20.61Q569.54-23.30 569.54-27.58L569.54-27.58L569.54-27.58Q569.54-29.06 568.99-29.86L568.99-29.86L568.99-29.86Q568.45-30.66 567.36-30.66L567.36-30.66L567.36-30.66Q566.27-30.66 565.34-30.24L565.34-30.24L565.34-30.24Q564.42-29.82 563.46-28.42L563.46-28.42L563.46-28.42Q561.09-25.22 559.74-17.79Z" fill="#ffd5af"></path></g></g><style>text {
  font-size: 64px;
  font-family: Arial Black;
  dominant-baseline: central;
  text-anchor: middle;
}</style></svg>